<svg width="39" height="39" viewBox="0 0 39 39" fill="none" xmlns="http://www.w3.org/2000/svg">
<g clip-path="url(#clip0_4231_972)">
<path d="M12.1875 28.0313C14.2061 28.0313 15.8438 29.6689 15.8438 31.6875V32.9063L21.3662 28.7625C21.9984 28.2902 22.7678 28.0313 23.56 28.0313H34.125C34.7953 28.0313 35.3438 27.4828 35.3438 26.8125V4.875C35.3438 4.20469 34.7953 3.65625 34.125 3.65625H4.875C4.20469 3.65625 3.65625 4.20469 3.65625 4.875V26.8125C3.65625 27.4828 4.20469 28.0313 4.875 28.0313H12.1875ZM15.8438 37.4766L15.8285 37.4918L15.44 37.7813L14.1375 38.7563C13.7719 39.0305 13.2768 39.0762 12.8578 38.8705C12.4389 38.6648 12.1875 38.2459 12.1875 37.7813V36.1588V35.6713V35.6484V35.3438V31.6875H8.53125H4.875C2.18613 31.6875 0 29.5014 0 26.8125V4.875C0 2.18613 2.18613 0 4.875 0H34.125C36.8139 0 39 2.18613 39 4.875V26.8125C39 29.5014 36.8139 31.6875 34.125 31.6875H23.56L15.8438 37.4766Z" fill="#EEEEEE"/>
</g>
<defs>
<clipPath id="clip0_4231_972">
<rect width="39" height="39" fill="white"/>
</clipPath>
</defs>
</svg>
