<svg width="45" height="36" viewBox="0 0 45 36" fill="none" xmlns="http://www.w3.org/2000/svg">
<path d="M13.5 7.875C7.91016 7.875 3.375 12.4102 3.375 18C3.375 23.5898 7.91016 28.125 13.5 28.125H31.5C37.0898 28.125 41.625 23.5898 41.625 18C41.625 12.4102 37.0898 7.875 31.5 7.875H13.5ZM0 18C0 10.5469 6.04688 4.5 13.5 4.5H31.5C38.9531 4.5 45 10.5469 45 18C45 25.4531 38.9531 31.5 31.5 31.5H13.5C6.04688 31.5 0 25.4531 0 18ZM16.3125 14.0625V16.3125H18.5625C19.4977 16.3125 20.25 17.0648 20.25 18C20.25 18.9352 19.4977 19.6875 18.5625 19.6875H16.3125V21.9375C16.3125 22.8727 15.5602 23.625 14.625 23.625C13.6898 23.625 12.9375 22.8727 12.9375 21.9375V19.6875H10.6875C9.75234 19.6875 9 18.9352 9 18C9 17.0648 9.75234 16.3125 10.6875 16.3125H12.9375V14.0625C12.9375 13.1273 13.6898 12.375 14.625 12.375C15.5602 12.375 16.3125 13.1273 16.3125 14.0625ZM28.125 19.125C28.7217 19.125 29.294 19.3621 29.716 19.784C30.1379 20.206 30.375 20.7783 30.375 21.375C30.375 21.9717 30.1379 22.544 29.716 22.966C29.294 23.3879 28.7217 23.625 28.125 23.625C27.5283 23.625 26.956 23.3879 26.534 22.966C26.1121 22.544 25.875 21.9717 25.875 21.375C25.875 20.7783 26.1121 20.206 26.534 19.784C26.956 19.3621 27.5283 19.125 28.125 19.125ZM30.375 14.625C30.375 14.0283 30.6121 13.456 31.034 13.034C31.456 12.6121 32.0283 12.375 32.625 12.375C33.2217 12.375 33.794 12.6121 34.216 13.034C34.6379 13.456 34.875 14.0283 34.875 14.625C34.875 15.2217 34.6379 15.794 34.216 16.216C33.794 16.6379 33.2217 16.875 32.625 16.875C32.0283 16.875 31.456 16.6379 31.034 16.216C30.6121 15.794 30.375 15.2217 30.375 14.625Z" fill="#EEEEEE"/>
</svg>
