<svg width="44" height="39" viewBox="0 0 44 39" fill="none" xmlns="http://www.w3.org/2000/svg">
<g clip-path="url(#clip0_4231_970)">
<path d="M23.1839 0.43418C22.4964 -0.144727 21.4957 -0.144727 20.8082 0.43418L0.641513 17.4967C-0.130014 18.1518 -0.221681 19.302 0.427624 20.0713C1.07693 20.8406 2.23804 20.932 3.00957 20.2846L4.88874 18.7002V32.9062C4.88874 36.273 7.62346 39 10.9998 39H32.9998C36.3762 39 39.111 36.273 39.111 32.9062V18.7002L40.9825 20.2846C41.754 20.9396 42.9151 20.8406 43.5644 20.0713C44.2137 19.302 44.1221 18.1441 43.3505 17.4967L23.1839 0.43418ZM8.5554 32.9062V15.6L21.9998 4.22754L35.4443 15.6V32.9062C35.4443 34.2545 34.3519 35.3438 32.9998 35.3438H29.3332V23.7656C29.3332 22.0822 27.9658 20.7188 26.2776 20.7188H17.7221C16.0339 20.7188 14.6665 22.0822 14.6665 23.7656V35.3438H10.9998C9.64776 35.3438 8.5554 34.2545 8.5554 32.9062ZM18.3332 35.3438V24.375H25.6665V35.3438H18.3332Z" fill="#EEEEEE"/>
</g>
<defs>
<clipPath id="clip0_4231_970">
<rect width="44" height="39" fill="white"/>
</clipPath>
</defs>
</svg>
