<svg width="23" height="27" viewBox="0 0 23 27" fill="none" xmlns="http://www.w3.org/2000/svg">
<path d="M11.5008 0C10.5921 0 9.85795 0.754102 9.85795 1.6875V2.63145C6.13585 3.23789 3.28652 6.54961 3.28652 10.5469V12.3082C3.28652 14.7023 2.49076 17.0279 1.03786 18.8947L0.272903 19.8809C-0.0248645 20.2605 -0.0813377 20.7826 0.124019 21.2203C0.329377 21.658 0.760627 21.9375 1.23295 21.9375H21.7687C22.241 21.9375 22.6722 21.658 22.8776 21.2203C23.0829 20.7826 23.0265 20.2605 22.7287 19.8809L21.9638 18.9C20.5108 17.0279 19.7151 14.7023 19.7151 12.3082V10.5469C19.7151 6.54961 16.8658 3.23789 13.1437 2.63145V1.6875C13.1437 0.754102 12.4095 0 11.5008 0ZM11.5008 5.0625H11.9115C14.8584 5.0625 17.2508 7.51992 17.2508 10.5469V12.3082C17.2508 14.8342 17.9644 17.2969 19.289 19.4062H3.71264C5.03719 17.2969 5.75081 14.8342 5.75081 12.3082V10.5469C5.75081 7.51992 8.14322 5.0625 11.0901 5.0625H11.5008ZM14.7865 23.625H11.5008H8.21509C8.21509 24.5215 8.55906 25.3811 9.17514 26.0139C9.79121 26.6467 10.628 27 11.5008 27C12.3736 27 13.2104 26.6467 13.8265 26.0139C14.4425 25.3811 14.7865 24.5215 14.7865 23.625Z" fill="#978C8C"/>
</svg>
