<svg width="35" height="40" viewBox="0 0 35 40" fill="none" xmlns="http://www.w3.org/2000/svg">
<g clip-path="url(#clip0_4231_976)">
<path d="M23.75 10C23.75 8.3424 23.0915 6.75269 21.9194 5.58058C20.7473 4.40848 19.1576 3.75 17.5 3.75C15.8424 3.75 14.2527 4.40848 13.0806 5.58058C11.9085 6.75269 11.25 8.3424 11.25 10C11.25 11.6576 11.9085 13.2473 13.0806 14.4194C14.2527 15.5915 15.8424 16.25 17.5 16.25C19.1576 16.25 20.7473 15.5915 21.9194 14.4194C23.0915 13.2473 23.75 11.6576 23.75 10ZM7.5 10C7.5 7.34784 8.55357 4.8043 10.4289 2.92893C12.3043 1.05357 14.8478 0 17.5 0C20.1522 0 22.6957 1.05357 24.5711 2.92893C26.4464 4.8043 27.5 7.34784 27.5 10C27.5 12.6522 26.4464 15.1957 24.5711 17.0711C22.6957 18.9464 20.1522 20 17.5 20C14.8478 20 12.3043 18.9464 10.4289 17.0711C8.55357 15.1957 7.5 12.6522 7.5 10ZM3.85156 36.25H31.1484C30.4531 31.3047 26.2031 27.5 21.0703 27.5H13.9297C8.79688 27.5 4.54688 31.3047 3.85156 36.25ZM0 37.6797C0 29.9844 6.23438 23.75 13.9297 23.75H21.0703C28.7656 23.75 35 29.9844 35 37.6797C35 38.9609 33.9609 40 32.6797 40H2.32031C1.03906 40 0 38.9609 0 37.6797Z" fill="#EEEEEE"/>
</g>
<defs>
<clipPath id="clip0_4231_976">
<rect width="35" height="40" fill="white"/>
</clipPath>
</defs>
</svg>
