<svg width="26" height="26" viewBox="0 0 26 26" fill="none" xmlns="http://www.w3.org/2000/svg">
<path d="M18.6875 10.5625C18.6875 8.40762 17.8315 6.34099 16.3077 4.81726C14.784 3.29352 12.7174 2.4375 10.5625 2.4375C8.40762 2.4375 6.34099 3.29352 4.81726 4.81726C3.29352 6.34099 2.4375 8.40762 2.4375 10.5625C2.4375 12.7174 3.29352 14.784 4.81726 16.3077C6.34099 17.8315 8.40762 18.6875 10.5625 18.6875C12.7174 18.6875 14.784 17.8315 16.3077 16.3077C17.8315 14.784 18.6875 12.7174 18.6875 10.5625ZM17.1184 18.8449C15.3207 20.2719 13.0406 21.125 10.5625 21.125C4.72773 21.125 0 16.3973 0 10.5625C0 4.72773 4.72773 0 10.5625 0C16.3973 0 21.125 4.72773 21.125 10.5625C21.125 13.0406 20.2719 15.3207 18.8449 17.1184L25.6445 23.918C26.1219 24.3953 26.1219 25.1672 25.6445 25.6395C25.1672 26.1117 24.3953 26.1168 23.923 25.6395L17.1184 18.8449Z" fill="#978C8C" fill-opacity="0.7"/>
</svg>
