<svg width="43" height="43" viewBox="0 0 43 43" fill="none" xmlns="http://www.w3.org/2000/svg">
<path d="M21.5 0C22.9278 0 24.3219 0.142773 25.6824 0.403125C26.3459 0.529102 27.5133 0.91543 28.1516 2.09121C28.3195 2.40195 28.4539 2.72949 28.5379 3.08223L29.319 6.31562C29.4365 6.80273 30.2596 7.28145 30.7383 7.13867L33.9297 6.19805C34.2656 6.09727 34.61 6.04688 34.9543 6.03848C36.3065 5.99648 37.2219 6.82793 37.667 7.33184C39.5231 9.43984 40.9508 11.9174 41.8578 14.5797C42.0762 15.218 42.3281 16.4105 41.6311 17.5527C41.4463 17.8551 41.2196 18.1406 40.9592 18.3926L38.5488 20.6854C38.1961 21.0213 38.1961 21.9871 38.5488 22.323L40.9592 24.6158C41.2196 24.8678 41.4463 25.1533 41.6311 25.4557C42.3197 26.5979 42.0678 27.7904 41.8578 28.4287C40.9508 31.091 39.5231 33.5602 37.667 35.6766C37.2219 36.1805 36.2981 37.0119 34.9543 36.9699C34.61 36.9615 34.2656 36.9027 33.9297 36.8104L30.7383 35.8613C30.2596 35.7186 29.4365 36.1973 29.319 36.6844L28.5379 39.9178C28.4539 40.2705 28.3195 40.6064 28.1516 40.9088C27.5049 42.0846 26.3375 42.4625 25.6824 42.5969C24.3219 42.8572 22.9278 43 21.5 43C20.0723 43 18.6781 42.8572 17.3176 42.5969C16.6541 42.4709 15.4867 42.0846 14.8485 40.9088C14.6805 40.598 14.5461 40.2705 14.4621 39.9178L13.6811 36.6844C13.5635 36.1973 12.7404 35.7186 12.2617 35.8613L9.07033 36.802C8.73439 36.9027 8.39006 36.9531 8.04572 36.9615C6.69357 37.0035 5.77814 36.1721 5.33303 35.6682C3.48537 33.5602 2.04924 31.0826 1.14221 28.4203C0.923846 27.782 0.671893 26.5895 1.36896 25.4473C1.55373 25.1449 1.78049 24.8594 2.04084 24.6074L4.45119 22.3146C4.80392 21.9787 4.80392 21.0129 4.45119 20.677L2.03244 18.3842C1.77209 18.1322 1.54533 17.8467 1.36057 17.5443C0.671893 16.4021 0.923846 15.2096 1.14221 14.5797C2.04924 11.9174 3.47697 9.44824 5.33303 7.33184C5.77814 6.82793 6.70197 5.99648 8.04572 6.03848C8.39006 6.04688 8.73439 6.10566 9.07033 6.19805L12.2617 7.13867C12.7404 7.28145 13.5635 6.80273 13.6811 6.31562L14.4621 3.08223C14.5461 2.72949 14.6805 2.39355 14.8485 2.09121C15.4951 0.91543 16.6625 0.5375 17.3176 0.403125C18.6781 0.142773 20.0723 0 21.5 0ZM18.317 4.3168L17.6031 7.26465C16.9481 9.97734 13.7987 11.7914 11.1195 11.0104L8.22209 10.1537C6.83635 11.7746 5.74455 13.6559 5.03068 15.6715L7.23107 17.7627C9.2467 19.6775 9.2467 23.3225 7.23107 25.2373L5.03068 27.3285C5.74455 29.3441 6.83635 31.2254 8.22209 32.8463L11.1279 31.9896C13.7987 31.2002 16.9565 33.0227 17.6115 35.7354L18.3254 38.6832C20.3914 39.0611 22.6338 39.0611 24.6998 38.6832L25.4137 35.7354C26.0688 33.0227 29.2182 31.2086 31.8973 31.9896L34.8031 32.8463C36.1889 31.2254 37.2807 29.3441 37.9945 27.3285L35.7942 25.2373C33.7785 23.3225 33.7785 19.6775 35.7942 17.7627L37.9945 15.6715C37.2807 13.6559 36.1889 11.7746 34.8031 10.1537L31.8973 11.0104C29.2266 11.7998 26.0688 9.97734 25.4137 7.26465L24.6998 4.3168C22.6338 3.93887 20.3914 3.93887 18.3254 4.3168H18.317ZM17.4688 21.5C17.4688 22.5692 17.8935 23.5945 18.6495 24.3505C19.4055 25.1065 20.4309 25.5312 21.5 25.5312C22.5692 25.5312 23.5945 25.1065 24.3505 24.3505C25.1065 23.5945 25.5313 22.5692 25.5313 21.5C25.5313 20.4308 25.1065 19.4055 24.3505 18.6495C23.5945 17.8935 22.5692 17.4688 21.5 17.4688C20.4309 17.4688 19.4055 17.8935 18.6495 18.6495C17.8935 19.4055 17.4688 20.4308 17.4688 21.5ZM21.5 29.5625C19.3617 29.5625 17.311 28.7131 15.799 27.201C14.287 25.689 13.4375 23.6383 13.4375 21.5C13.4375 19.3617 14.287 17.311 15.799 15.799C17.311 14.2869 19.3617 13.4375 21.5 13.4375C23.6383 13.4375 25.6891 14.2869 27.2011 15.799C28.7131 17.311 29.5625 19.3617 29.5625 21.5C29.5625 23.6383 28.7131 25.689 27.2011 27.201C25.6891 28.7131 23.6383 29.5625 21.5 29.5625Z" fill="#EEEEEE"/>
</svg>
